<?xml version="1.0" encoding="UTF-8"?>
<svg xmlns="http://www.w3.org/2000/svg" xmlns:xlink="http://www.w3.org/1999/xlink" width="16px" height="18px" viewBox="0 0 16 18" version="1.1">
<g id="surface1">
<path style=" stroke:none;fill-rule:nonzero;fill:rgb(18.431373%,18.823529%,20.784314%);fill-opacity:1;" d="M 3.429688 1.125 C 3.429688 0.503906 3.9375 0 4.570312 0 C 5.203125 0 5.714844 0.503906 5.714844 1.125 L 5.714844 2.25 L 10.285156 2.25 L 10.285156 1.125 C 10.285156 0.503906 10.796875 0 11.429688 0 C 12.0625 0 12.570312 0.503906 12.570312 1.125 L 12.570312 2.25 L 14.285156 2.25 C 15.230469 2.25 16 3.003906 16 3.9375 L 16 5.625 L 0 5.625 L 0 3.9375 C 0 3.003906 0.765625 2.25 1.714844 2.25 L 3.429688 2.25 Z M 16 16.3125 C 16 17.242188 15.230469 18 14.285156 18 L 1.714844 18 C 0.765625 18 0 17.242188 0 16.3125 L 0 6.75 L 16 6.75 Z M 16 16.3125 "/>
</g>
</svg>
