<?xml version="1.0" encoding="UTF-8"?>
<svg xmlns="http://www.w3.org/2000/svg" xmlns:xlink="http://www.w3.org/1999/xlink" width="px" height="44px" viewBox="0 0 44 44" version="1.1">
<g id="surface1">
<path style=" stroke:none;fill-rule:nonzero;fill:rgb(0%,0%,0%);fill-opacity:1;" d="M 15.125 22 C 15.125 18.203125 18.203125 15.125 22 15.125 C 25.796875 15.125 28.875 18.203125 28.875 22 C 28.875 25.796875 25.796875 28.875 22 28.875 C 18.203125 28.875 15.125 25.796875 15.125 22 Z M 22 0 C 23.519531 0 24.75 1.230469 24.75 2.75 L 24.75 5.726562 C 31.660156 6.886719 37.117188 12.339844 38.269531 19.25 L 41.25 19.25 C 42.769531 19.25 44 20.480469 44 22 C 44 23.519531 42.769531 24.75 41.25 24.75 L 38.269531 24.75 C 37.117188 31.660156 31.660156 37.117188 24.75 38.269531 L 24.75 41.25 C 24.75 42.769531 23.519531 44 22 44 C 20.480469 44 19.25 42.769531 19.25 41.25 L 19.25 38.269531 C 12.339844 37.117188 6.886719 31.660156 5.726562 24.75 L 2.75 24.75 C 1.230469 24.75 0 23.519531 0 22 C 0 20.480469 1.230469 19.25 2.75 19.25 L 5.726562 19.25 C 6.886719 12.339844 12.339844 6.886719 19.25 5.726562 L 19.25 2.75 C 19.25 1.230469 20.480469 0 22 0 Z M 11 22 C 11 28.074219 15.925781 33 22 33 C 28.074219 33 33 28.074219 33 22 C 33 15.925781 28.074219 11 22 11 C 15.925781 11 11 15.925781 11 22 Z M 11 22 "/>
</g>
</svg>
