<?xml version="1.0" encoding="UTF-8"?>
<svg xmlns="http://www.w3.org/2000/svg" xmlns:xlink="http://www.w3.org/1999/xlink" width="px" height="44px" viewBox="0 0 44 44" version="1.1">
<g id="surface1">
<path style=" stroke:none;fill-rule:nonzero;fill:rgb(0%,0%,0%);fill-opacity:1;" d="M 39.875 5.5 C 42.152344 5.5 44 7.347656 44 9.625 C 44 10.921875 43.390625 12.144531 42.351562 12.925781 L 23.648438 26.949219 C 22.671875 27.679688 21.328125 27.679688 20.351562 26.949219 L 1.648438 12.925781 C 0.609375 12.144531 0 10.921875 0 9.625 C 0 7.347656 1.847656 5.5 4.125 5.5 Z M 18.699219 29.148438 C 20.660156 30.621094 23.339844 30.621094 25.300781 29.148438 L 44 15.125 L 44 33 C 44 36.035156 41.535156 38.5 38.5 38.5 L 5.5 38.5 C 2.460938 38.5 0 36.035156 0 33 L 0 15.125 Z M 18.699219 29.148438 "/>
</g>
</svg>
