<?xml version="1.0" encoding="UTF-8"?>
<svg xmlns="http://www.w3.org/2000/svg" xmlns:xlink="http://www.w3.org/1999/xlink" width="px" height="44px" viewBox="0 0 39 44" version="1.1">
<g id="surface1">
<path style=" stroke:none;fill-rule:nonzero;fill:rgb(0%,0%,0%);fill-opacity:1;" d="M 33.429688 2.75 L 5.570312 2.75 C 2.492188 2.75 0 5.210938 0 8.25 L 0 35.75 C 0 38.789062 2.492188 41.25 5.570312 41.25 L 33.429688 41.25 C 36.507812 41.25 39 38.789062 39 35.75 L 39 8.25 C 39 5.210938 36.5 2.75 33.429688 2.75 Z M 30.609375 27.628906 L 29.597656 31.960938 C 29.453125 32.570312 28.910156 33 28.269531 33 C 17.292969 33 8.359375 24.183594 8.359375 13.335938 C 8.359375 12.707031 8.792969 12.167969 9.414062 12.03125 L 13.800781 11.03125 C 14.441406 10.882812 15.097656 11.210938 15.363281 11.808594 L 17.386719 16.472656 C 17.625 17.023438 17.464844 17.660156 16.996094 18.039062 L 14.652344 19.9375 C 16.128906 22.910156 18.582031 25.328125 21.59375 26.789062 L 23.511719 24.476562 C 23.890625 24.015625 24.542969 23.855469 25.101562 24.09375 L 29.820312 26.089844 C 30.425781 26.347656 30.757812 27 30.609375 27.628906 Z M 30.609375 27.628906 "/>
</g>
</svg>
